<?xml version="1.0" encoding="utf-8"?>
<!-- Generator: Adobe Illustrator 19.2.1, SVG Export Plug-In . SVG Version: 6.00 Build 0)  -->
<!DOCTYPE svg PUBLIC "-//W3C//DTD SVG 1.1//EN" "http://www.w3.org/Graphics/SVG/1.1/DTD/svg11.dtd">
<svg version="1.1" id="Foreground" xmlns="http://www.w3.org/2000/svg" xmlns:xlink="http://www.w3.org/1999/xlink" x="0px" y="0px"
	 viewBox="0 0 342 118" style="enable-background:new 0 0 342 118;" xml:space="preserve">
<style type="text/css">
	.st0{fill:#FFFFFF;}
	.st1{fill:#F49832;stroke:#1D1D1B;stroke-width:4.2362;stroke-linecap:round;}
	.st2{fill:#1D1D1B;}
	.st3{fill:#F49832;}
	.st4{fill:none;stroke:#1D1D1B;stroke-width:0.5286;}
</style>
<path class="st0" d="M63.8,46.8c0,0,6.4,7.5,5.8,18c5.9-18,14.1-32.1,26.2-43.4C110.4,7.8,119.4,7,127.3,7c7.9,0,150.1,0,160.6,0
	c10.5,0,19.7,8.9,22.3,18.8c2.9,10.9-2,51.1-28.6,72.9c-15.2,12.5-26.4,12.1-33.6,12.1c-3.2,0-139.4,0-150.8,0
	c-17.5,0-27.1-9.2-30.5-20.7l-7.1-3.5v6.7c2.1,2,6.7,6.7,3.8,12.5c-3.4,6.8-16.5,1.4-16.5,1.4c-1.9,1.3-12,4.5-16-1.5
	c-4-5.9,4-12.7,4-12.7v-6.8c-1.5-0.8-1.9-4-1.9-4c-2.8-1.7-2.5-8.3-2.5-8.3c-5.9-3.6-5.1-13.1-5.1-13.1C18,56.8,12,49,8.8,43.2
	C6.8,39.6,6.1,33,8,30.1c1.9-2.9,3.4-5.5,8.2-2.4c2.4,1.5,11.1,9.5,11.1,9.5c-0.7-2.2-1.2-4.6-1.2-7.1c0-12.5,10.1-22.6,22.6-22.6
	c12.5,0,22.6,10.1,22.6,22.6C71.2,36.8,68.4,42.7,63.8,46.8z"/>
<path class="st1" d="M98.7,100.6c-21.6,0-26.8-14-18.2-35.6C87,48.5,93,37.3,103.8,27.7c12.4-10.9,19.5-10.6,26.1-10.6
	c6.6,0,145.6,0,154.2,0c8.7,0,17.2,5.7,17.6,14.2c0.4,8.5-4.3,41.3-28.2,60.4c-12.7,10.2-21,8.9-26.9,8.9
	C240.6,100.6,104.8,100.6,98.7,100.6z"/>
<path class="st2" d="M91.9,84.5c0,0,46.6,0,52.5,0c5.9,0,20.3-4.6,21.8-16.9c0.6-5.3-4.3-9.5-7.2-10.6c0,0,18.7-2.3,18.7-16.3
	c0-6.5-7-9.6-12.3-9.6c-5.3,0-46.8,0-46.8,0L91.9,84.5z"/>
<polygon class="st2" points="167,84.5 192,84.5 207,43.1 191.6,43.1 "/>
<path class="st2" d="M260.9,54.6h10.9l21.4-23.1h-22l-2.2,4c0,0-3.9-5.8-17.9-5.8c-14,0-34.3,7.9-39.2,26.2
	c-4.9,18.2,8,29.4,24.8,29.4c16.7,0,26.7-4.9,35-14.2l-6.5-6.1c0,0-9.1,14-26.2,10c-7.3-1.7-7.2-16.7,2.3-26.7
	c9.5-10,16-8.8,18.2-7.5C261.7,42,265.7,44.6,260.9,54.6z"/>
<path class="st3" d="M115,74.8c0,0,13.7,0,16,0c2.3,0,10.1-3.6,11.1-8.4c1.1-4.8-1.3-6.7-3.8-6.7c-2.5,0-13.3,0-13.3,0L115,74.8z"/>
<path class="st3" d="M132,50.5c0,0,10.7,0,13.2,0c2.5,0,10.1-2.2,10.3-6.6c0.2-4.3-3.9-4.6-5.4-4.6c-1.5,0-10.6,0-10.6,0L132,50.5z"
	/>
<g>
	<circle class="st2" cx="48.7" cy="30.1" r="15.3"/>
	<path class="st2" d="M48.7,30.1"/>
</g>
<g>
	<circle class="st0" cx="43.8" cy="27.1" r="5.4"/>
</g>
<path class="st2" d="M12.5,38c1.4,6.5,8.9,13.3,14.6,17.6c0.4,0.3,1.4,1.4,1.2-0.5c0,0,0-1,0.7-0.2c0.7,0.7,32.6,25.3,34,26.4
	c0.9,0.7,1.7,1,2.3,1.3c1.1,0.5,1.9,1.1,2.5,1.3c1,0.4,1.3,0.2,0.7-0.7c-0.2-0.4-1.1-1.8-1.4-2.3c-0.6-0.9-1-1.6-1.7-2.3
	c-1.1-0.9-29.8-26-29.8-26S15.8,35,14.8,34c-0.7-0.8-1.5-1.5-1.7-0.3C12.9,34.6,12.3,37.3,12.5,38z"/>
<path class="st2" d="M58.8,74.2l1.4-0.3c-0.5-1.3,0.6-2.2,0.8-2.8c0.3-1.2,0.6-12.8-0.4-14.9c-0.8-1.8-6.5-8.8-7.3-8.9
	c-0.7-0.1-1.3,1.6-1.5,2c-0.2,0.6-1.2,2.9-1.7,2.9c-0.6,0-1.3-2.4-1.1-2.8c0.2-0.4,0.5-1.2,0.8-1.9c0.3-0.7-0.3-0.7-0.6-0.7
	c-0.5,0.1-1.8,0-1.8,0c-0.5-0.1-0.6,0.4-0.4,0.7c0.2,0.3,0.8,1.5,0.8,2c-0.3,2.6-1.2,2.9-1.5,2.1c-2.1-5.3-3.2-4.3-4.4-4.1
	c-1.2,0.3-3.5,0.7-5,1.4c-1.5,0.7-4.5,15.8-4.7,17.3c-0.2,1.5,0.3,1.5,0.6,1.7c0.3,0.3,2.2,1.3,3.2,1.9c1.1,0.5,1.2,0.9,1.2,1.4
	c0,0.5,0,6.6,0,7c0,0.6-0.2,2.4,1.1,2.3c1.4-0.1,1.4,0.8,1.5,1.2c0.1,0.4-0.4,3.1,0.8,3.2c1.2,0.1,1.3,0.2,1.3,1.3
	c0,0.7,0,8.1,0,9.4c0,1.3,0,1.9-0.4,2.1c-2.8,1.6-5.4,5.1-3.9,5.9c2.2,1.1,7.2-3.5,8.8-3.4c0.9,0,1.3,0.6,2.5,0.7
	c0.7,0,1.3,0.7,3.2,1.5c1.9,0.8,3.5,0.4,3.5-1.2c0.1-1.2-1-2.1-2.3-2.9c-1.3-0.8-1.5-1.4-1.5-1.4c0-4.6,0.4-6.1,0.4-6.7
	c0-4.9,0.9-4.7,1.6-5.4c0.4-0.3,0.1-2,0.1-2.6c0-0.7-0.2-1.4,0.9-1.4c1.1,0,2.1-0.3,2-1.3c-0.1-1.2-0.1-3.2,0.9-2.1L58.8,74.2z"/>
<path class="st3" d="M34,67.5c0.7,0.7,2,0.9,2.9,1.2c1,0.3,0.8-1.8,0.8-2.2c0-0.9-1.4-1.5-1.3-2.4c0.3-1.8,1.3-4.8,1.9-6.2
	c0-0.2,0.2-0.5,0.4-0.5c0.2,0,0.2,0.1,0.3,0.6c-0.4,6.9-0.8,13-0.8,20c0,2.2,2,1.7,2.8,1.7c4.5,0.1,9,0.1,13.7-0.3
	c0.8-0.1,1.1-1.1,1.1-1.6c0.2-3.4-0.5-6.8-0.3-10.3c0.1-2.2-0.3-6.8,0.7-6.8c1,0-0.7,10.3,1,12.7c4-1.1,3.1-9.8,2.8-15.3
	c-0.2-2.3-4.6-7.6-6.6-9.3c-0.8,1.4-1.8,3.1-2.6,4.5c-0.7,1.1-1.7,3.1-2.6,3.1c-0.7,0-2.5-3.6-3.3-5.6c-0.4-0.9-1.2-2.6-2.1-2.5
	c-1.8,0.3-5.5,0.8-5.9,2.3c-1.6,5.3-2.9,10-3.5,15.5C33.2,67.2,33.6,67.1,34,67.5z"/>
<path class="st3" d="M49.2,80.5c1,0,2,0.3,2.8,0.3c1.5,0.1,1.1,1.5,1.1,2.2c0.1,0.7-0.8,1.1-1.6,1.1c-0.8,0-1.6,0.1-2.2,0
	c-0.6-0.1-1.5-0.3-1.5-1.2c0-0.7,0-0.9,0-1.1C47.7,81.1,48.1,80.5,49.2,80.5z"/>
<path class="st3" d="M42.5,80.8c0.5,0,2,0,2.5,0c0.5,0,0.9,0.3,0.9,1c0,0.7,0.3,2.2-1.9,2.2c-1.2,0-2.6-0.2-2.9-0.5
	c-0.3-0.3-0.2-1-0.2-1.6C41.1,80.9,41.9,80.9,42.5,80.8z"/>
<path class="st0" d="M48.2,85.2c0.6-0.4,1.7-0.2,2.3-0.2c0.6,0,1.2,0.5,1.1,2.3c-0.1,1.9-0.2,2.3-0.3,2.9c-0.1,0.6-0.5,1.1-1.4,1.1
	c-0.9,0.1-1.6,0-2-0.1c-0.4-0.1-0.6-0.5-0.6-1.5c-0.1-1.1,0.1-3.3,0.1-3.7C47.5,85.5,47.6,85.5,48.2,85.2z"/>
<path class="st0" d="M43.3,85c0.7,0,1.8-0.2,2.4-0.1c0.6,0.1,1,0.5,0.9,2.3c-0.1,1.9-0.1,2.4-0.1,3c-0.1,0.6-0.6,1-1.5,1
	c-0.9,0.1-1.4,0-1.8-0.1c-0.4-0.1-0.6-0.5-0.6-1.5c-0.1-1.1,0.1-3.3,0.1-3.7C42.7,85.5,42.6,85,43.3,85z"/>
<path class="st2" d="M49,87.3c-0.1,0.2-0.3,0.5-0.4,0.7c0,0.7,0.4,1,0.8,1c0.5,0,0.7-0.4,0.8-1c0.1-0.5-0.4-1-0.8-1
	C49.3,87,49.2,87.1,49,87.3z"/>
<path class="st2" d="M44.3,87.4c0,0-0.3,0-0.3,0.8c0,0.6,0.3,1,0.8,1.1c0.2,0,0.7-0.5,0.7-1.1c0-0.6-0.1-1-0.6-1
	C44.7,87.1,44.4,87.4,44.3,87.4z"/>
<path class="st3" d="M49.8,96.6c0.3,0,1.2-0.6,1.2-0.9l0.1-2.3c0.1-0.6-0.5-1-1-1l-2.1,0.1c-0.3,0-0.7,0.9-0.7,1.3v1.8
	c0,0.6,1.1,1.1,1.4,1.1H49.8z"/>
<path class="st3" d="M45.7,96.6c0.3,0,0.6-0.3,0.6-0.6v-2.8c0-0.3-0.3-0.6-0.6-0.6l-1.9,0c-1-0.1-1,0.8-1,1.2l0.1,2.3
	c0,0.6,1,0.7,1.3,0.7L45.7,96.6z"/>
<path class="st3" d="M52.3,99c-0.4-0.2-1,0-1.2-0.3c-0.2-0.3-0.1-1.1-0.6-1.3c-0.9-0.4-2.9-0.4-3,0.5c-0.2,1.8,1.4,1.4,2.6,2.1
	c1.6,0.8,3.2,2.3,4.7,1.2c0.4-0.7-1.1-1.7-1.8-1.7C53.1,99.5,52.6,99.6,52.3,99z"/>
<path class="st3" d="M42.5,98.1c0.2-0.6,0.5-0.8,1.2-0.7c0.7,0.1,1.2,0,1.5,0c1.1,0.1,1,1.7,0.2,2.1c-1.2,0.6-1.2,0.3-1.8,0.6
	c-0.9,0.6-1.1,1.2-1.9,1.6c-0.8,0.5-2.8,1.3-3.2,0.9c-0.4-0.4,0.1-1.8,0.9-2.4c0.8-0.6,1.3-0.5,1.6-0.6c0.3-0.1,0.6-0.7,0.8-0.7
	C42.2,99,42.4,98.3,42.5,98.1z"/>
<path class="st4" d="M44,47.9c2.5,1.9,3.3-0.8,3.3-0.8l1.7,0.3c0,0,1.3,2.5,3.4,1.1"/>
<path class="st0" d="M26.7,54c0.1,0.1,0.5,0.1,0.6-0.1l0.2-0.2c0.1-0.1,0.1-0.4,0-0.5l-9.3-8.8c-0.1-0.1-0.6,0.1-0.7,0.2l0.2-0.2
	c-0.1,0.1-0.5,0.5-0.1,0.9L26.7,54z"/>
<g>
	<ellipse transform="matrix(0.9916 -0.1291 0.1291 0.9916 -2.89 26.579)" class="st2" cx="203.6" cy="35.6" rx="7.8" ry="6.4"/>
</g>
<path class="st2" d="M320,23c0-3.6,2.7-6.4,6.2-6.4c3.5,0,6.2,2.7,6.2,6.4c0,3.7-2.8,6.4-6.2,6.4C322.8,29.4,320,26.7,320,23z
	 M326.3,30.7c4.2,0,7.8-3.2,7.8-7.7c0-4.4-3.6-7.7-7.8-7.7c-4.2,0-7.8,3.3-7.8,7.7C318.5,27.4,322,30.7,326.3,30.7z M324.6,23.6h1.5
	l2.3,3.9h1.5l-2.5-3.9c1.3-0.2,2.3-0.8,2.3-2.4c0-1.8-1-2.5-3.1-2.5h-3.4v8.9h1.3V23.6z M324.6,22.4v-2.8h1.8c0.9,0,1.9,0.2,1.9,1.3
	c0,1.4-1,1.5-2.1,1.5H324.6z"/>
</svg>
