<?xml version="1.0" encoding="utf-8"?>
<!-- Generator: Adobe Illustrator 16.0.0, SVG Export Plug-In . SVG Version: 6.00 Build 0)  -->
<!DOCTYPE svg PUBLIC "-//W3C//DTD SVG 1.1//EN" "http://www.w3.org/Graphics/SVG/1.1/DTD/svg11.dtd">
<svg version="1.1" id="Layer_1" xmlns="http://www.w3.org/2000/svg" xmlns:xlink="http://www.w3.org/1999/xlink" x="0px" y="0px"
	 width="512px" height="512px" viewBox="0 0 512 512" enable-background="new 0 0 512 512" xml:space="preserve">
<path fill="#1B9DFB" d="M506,256c0,138.07-111.93,250-250,250C117.922,506,6,394.07,6,256C6,117.922,117.922,6,256,6
	C394.07,6,506,117.922,506,256z"/>
<g id="_x23_000000ff">
	<path fill="#FFFFFF" d="M166.857,138.603c1.705-11.971,10.613-22.479,22.049-26.318c8.308-2.877,17.875-2.149,25.477,2.34
		c4.102,2.292,7.262,5.847,10.557,9.115c29.006,29.005,58.004,58.004,87.005,87.002c44.227,44.227,45.256,45.256,0,90.511
		c-30.165,30.164-60.345,60.328-90.497,90.509c-3.705,3.832-8.272,6.887-13.413,8.363c-13.28,4.131-28.547-1.889-36.035-13.463
		c-8.012-11.52-7.275-28.589,2.766-38.688c30.582-30.709,61.293-61.305,91.924-91.978c-30.406-30.419-60.833-60.817-91.231-91.245
		C168.554,158.104,165.373,148.035,166.857,138.603z"/>
</g>
</svg>
