<?xml version="1.0" encoding="utf-8"?>
<!-- Generator: Adobe Illustrator 16.0.0, SVG Export Plug-In . SVG Version: 6.00 Build 0)  -->
<!DOCTYPE svg PUBLIC "-//W3C//DTD SVG 1.1//EN" "http://www.w3.org/Graphics/SVG/1.1/DTD/svg11.dtd">
<svg version="1.1" id="Layer_1" xmlns="http://www.w3.org/2000/svg" xmlns:xlink="http://www.w3.org/1999/xlink" x="0px" y="0px"
	 width="512px" height="512px" viewBox="0 0 512 512" enable-background="new 0 0 512 512" xml:space="preserve">
<path fill="#1B9DFB" d="M506,256c0,138.076-111.923,250-250,250C117.923,506,6,394.076,6,256C6,117.923,117.923,6,256,6
	C394.077,6,506,117.923,506,256z"/>
<g>
	<path fill="#FFFFFF" d="M260.794,82.62c12.456-3.519,26.458-1.267,36.979,6.323c12.488,8.685,19.653,24.299,17.983,39.408
		c-1.312,14.387-10.506,27.694-23.478,34.142c-13.581,7.015-30.894,6.013-43.562-2.541c-12.465-8.149-20.153-23.048-19.255-37.909
		C229.962,103.99,243.324,87.374,260.794,82.62z"/>
	<path fill="#FFFFFF" d="M253.549,195.571c34.655-22.093,65.173-2.021,54.683,38.398c-10.365,41.28-20.59,82.578-30.925,123.888
		c-9.147,33.621,17.983,6.775,32.018,6.791c4.59-0.126,7.742,5.172,6.026,9.227c-5.059,14.45-41.182,37.601-53.927,46.595
		c-28.153,20.012-70.583,11.513-60.194-25.65c10.943-44.559,22.19-89.056,33.258-133.591c0.57-5.283,4.379-13.284-1.28-16.842
		c-11.824,0.054-20.934,11.318-33.032,9.991c-3.699-0.373-4.48-4.328-4.09-7.35C195.12,233.31,242.778,203.129,253.549,195.571z"/>
</g>
</svg>
