<?xml version="1.0" encoding="utf-8"?>
<!-- Generator: Adobe Illustrator 16.0.0, SVG Export Plug-In . SVG Version: 6.00 Build 0)  -->
<svg version="1.2" baseProfile="tiny" id="Layer_1" xmlns="http://www.w3.org/2000/svg" xmlns:xlink="http://www.w3.org/1999/xlink"
	 x="0px" y="0px" width="340.158px" height="141.732px" viewBox="0 0 340.158 141.732" xml:space="preserve">
<g>
	<path fill="#1B9DFB" d="M21.707,73.248c-2.15-8.044,2.635-16.313,10.679-18.469c8.035-2.148,16.312,2.635,18.461,10.68
		l13.453,50.19c2.149,8.04-2.631,16.314-10.676,18.465c-8.044,2.154-16.312-2.63-18.464-10.674L21.707,73.248L21.707,73.248z
		 M203.099,101.282c-2.646,2.64-5.748,4.704-9.089,6.088l-0.04,0.016l-0.009-0.016c-3.321,1.373-6.966,2.108-10.707,2.108
		c-7.731,0-14.737-3.137-19.799-8.196l-0.557-0.526c-4.73-5.017-7.639-11.799-7.639-19.271c0-7.748,3.127-14.759,8.174-19.82
		l0.021,0.023c5.062-5.063,12.066-8.197,19.799-8.197c7.751,0,14.76,3.126,19.821,8.174c2.1,2.105,3.864,4.546,5.213,7.238h-25.034
		c-6.947,0-12.584,5.636-12.584,12.583s5.637,12.583,12.584,12.583h40.533c2.341,9.596,7.295,18.186,14.064,24.958l0.049,0.05
		c9.623,9.612,22.9,15.57,37.541,15.57c14.675,0,27.968-5.949,37.591-15.57c9.623-9.624,15.568-22.916,15.568-37.592
		c0-14.674-5.945-27.966-15.568-37.589s-22.916-15.571-37.591-15.571c-14.641,0-27.918,5.957-37.541,15.571l-0.049,0.048
		c-3.295,3.3-6.158,7.022-8.504,11.09c-2.347-4.066-5.207-7.79-8.505-11.09l-0.05-0.048c-9.622-9.615-22.9-15.571-37.541-15.571
		c-14.675,0-27.967,5.948-37.59,15.571l0.026,0.025l-0.026,0.021c-3.296,3.298-6.161,7.025-8.505,11.092l-0.011-0.043
		c-4.617-17.216-15.786-30.945-30.101-39.213C92.708,7.499,75.215,4.69,58.012,9.292c-8.044,2.154-12.824,10.425-10.675,18.472
		c2.154,8.044,10.421,12.821,18.465,10.675c9.204-2.461,18.538-0.981,26.149,3.411c7.633,4.408,13.595,11.74,16.057,20.938
		c2.465,9.207,0.976,18.527-3.411,26.14l-0.385,0.708c-4.414,7.278-11.593,12.954-20.547,15.351
		c-8.043,2.152-12.829,10.426-10.675,18.47c2.148,8.04,10.425,12.824,18.465,10.675c16.821-4.508,30.339-15.324,38.674-29.252
		l0.535-0.852c0.895-1.551,1.726-3.139,2.491-4.758c2.55,7.154,6.595,13.608,11.756,18.985c0.236,0.28,0.489,0.56,0.753,0.821
		c9.623,9.621,22.915,15.57,37.59,15.57c7.011,0,13.922-1.414,20.339-4.071l-0.009-0.019c6.39-2.647,12.254-6.532,17.207-11.48
		c4.909-4.883,4.933-12.834,0.05-17.744C215.958,96.423,208.007,96.4,203.099,101.282L203.099,101.282z M255.622,101.306
		c-5.048-5.063-8.173-12.072-8.173-19.822c0-7.748,3.125-14.759,8.173-19.82c5.063-5.048,12.07-8.174,19.82-8.174
		c7.73,0,14.735,3.135,19.799,8.197c5.062,5.06,8.196,12.063,8.196,19.797c0,7.73-3.137,14.738-8.196,19.799
		c-5.063,5.062-12.066,8.196-19.799,8.196C267.692,109.479,260.683,106.353,255.622,101.306z"/>
	<path fill="#E8420C" d="M22.758,18.883c8.062-2.163,16.352,2.626,18.514,10.692c2.158,8.058-2.631,16.352-10.693,18.515
		c-8.058,2.154-16.356-2.631-18.505-10.691C9.912,29.331,14.691,21.046,22.758,18.883z"/>
</g>
</svg>
