<?xml version="1.0" encoding="utf-8"?>
<!-- Generator: Adobe Illustrator 16.0.0, SVG Export Plug-In . SVG Version: 6.00 Build 0)  -->
<svg version="1.2" baseProfile="tiny" id="Calque_1"
	 xmlns="http://www.w3.org/2000/svg" xmlns:xlink="http://www.w3.org/1999/xlink" x="0px" y="0px" width="141.732px"
	 height="141.732px" viewBox="0 0 141.732 141.732" xml:space="preserve">
<g>
	<path fill="#ED1C24" d="M132.299,49.532c1.308,0,2.347-1.046,2.347-2.344c0-1.313-1.039-2.359-2.347-2.359
		c-1.312,0-2.344,1.046-2.344,2.359C129.956,48.486,130.988,49.532,132.299,49.532L132.299,49.532z M132.299,48.978
		c-1.021,0-1.788-0.752-1.788-1.791c0-1.057,0.767-1.803,1.788-1.803c1.007,0,1.79,0.746,1.79,1.803
		C134.089,48.226,133.306,48.978,132.299,48.978L132.299,48.978z M132.837,47.349c0.434-0.032,0.661-0.213,0.661-0.668
		c0-0.644-0.386-0.746-0.949-0.746h-1.185v2.441h0.547v-1.027h0.379l0.547,1.027h0.59L132.837,47.349L132.837,47.349z
		 M131.912,46.977v-0.612h0.522c0.24,0,0.558,0,0.558,0.25c0,0.303-0.154,0.362-0.43,0.362H131.912L131.912,46.977z"/>
	<g>
		<path fill="#ED1C24" d="M49.692,97.044c-23.51-8.56-36.69-32.936-31.893-56.738H7.689C3.897,65.61,18.273,90.925,43.246,100.011
			c26.069,9.49,54.659-1.993,67.298-25.828C98.892,95.433,73.169,105.588,49.692,97.044z"/>
		<g>
			<path fill="#ED1C24" d="M123.586,45.034v5.529h-2.528v0.005c-4.905,0-8.881,3.978-8.881,8.882c0,4.905,3.976,8.882,8.881,8.882
				c2.668,0,5.063-1.181,6.688-3.045c0.004,0,0.004-0.001,0.004-0.001l-0.004-20.252H123.586z M123.58,63.313
				c-0.75,0.475-1.62,0.739-2.521,0.739c-2.598,0-4.711-2.112-4.711-4.711c0-2.593,2.113-4.709,4.711-4.709c0,0,1.336,0,2.521,0
				C123.58,58.158,123.58,61.389,123.58,63.313z"/>
			<path fill="#ED1C24" d="M83.669,50.547c-2.671,0-5.063,1.181-6.69,3.043c0,0.002,0,0.002-0.001,0.005L76.97,73.849h4.171v-5.535
				h2.528v-0.002c4.907,0,8.885-3.975,8.885-8.881C92.554,54.526,88.577,50.547,83.669,50.547z M83.669,64.14
				c0,0-1.337,0-2.52,0.001c0-3.526,0-6.758,0-8.681c0.747-0.474,1.617-0.74,2.52-0.74c2.6,0,4.709,2.114,4.709,4.71
				C88.378,62.028,86.269,64.14,83.669,64.14z"/>
			<path fill="#ED1C24" d="M74.735,53.568c-1.628-1.855-4.014-3.026-6.674-3.026c-4.905,0-8.883,3.975-8.883,8.882
				c0,4.903,3.978,8.881,8.883,8.881c0.011,0,0.02,0,0.028,0l2.514-2.517l-0.004,2.513h0.004h4.138v-14.73v-0.003H74.735z
				 M70.598,63.425c-0.734,0.468-1.605,0.739-2.538,0.739c-2.615,0-4.741-2.128-4.741-4.741c0-2.615,2.126-4.745,4.741-4.745
				c0.933,0,1.803,0.273,2.538,0.74V63.425z"/>
			<path fill="#ED1C24" d="M99.613,57.365l4.121,4.104h6.346c0.409-0.94,0.795-2.262,0.559-4.104
				c-0.497-3.825-3.77-6.782-7.73-6.793c-4.879,0-8.851,3.97-8.851,8.852c0,4.877,3.989,8.878,8.867,8.878c0.013,0,0,0,0,0l0,0
				c2.129-0.003,4.083-0.757,5.612-2.012l-2.955-2.955c-0.758,0.519-1.673,0.827-2.657,0.83h-0.017
				c-2.616,0-4.741-2.128-4.741-4.741c0-2.616,2.125-4.745,4.741-4.745c1.665,0.011,3.069,1.154,3.517,2.686
				C106.424,57.365,100.024,57.365,99.613,57.365z"/>
			<g>
				<path fill="#ED1C24" d="M32.785,50.736c0.164-0.524,0.639-0.877,1.183-0.877s1.021,0.355,1.186,0.886
					c0.002,0.005,4.245,15.843,4.705,17.557h4.943l-5.09-18.997c-0.211-0.68-0.54-1.312-0.977-1.877
					c-1.15-1.492-2.888-2.351-4.767-2.351s-3.618,0.858-4.767,2.351c-0.438,0.566-0.765,1.197-0.975,1.871
					c-0.003,0.003-4.618,17.227-5.095,19.003h4.944L32.785,50.736z"/>
				<path fill="#ED1C24" d="M54.592,49.308c-0.214-0.683-0.545-1.314-0.977-1.88c-1.152-1.492-2.891-2.351-4.77-2.351
					s-3.618,0.858-4.77,2.351c-0.436,0.569-0.763,1.197-0.973,1.871l-0.611,2.281l2.469,9.238l2.702-10.082
					c0.164-0.524,0.638-0.877,1.183-0.877c0.543,0,1.021,0.355,1.188,0.886c0,0.005,4.245,15.843,4.702,17.557h4.944L54.592,49.308z
					"/>
			</g>
		</g>
	</g>
</g>
<g>
	<path fill="#ED1C24" d="M74.77,45.475h-1.777l-0.518-1.186h-2.566l-0.461,1.186h-1.622l3.204-7.083h0.512L74.77,45.475z
		 M72.167,43.596l-1.013-2.342l-0.995,2.342H72.167z"/>
	<path fill="#ED1C24" d="M79.074,43.783c0,0.537-0.201,0.968-0.603,1.295c-0.402,0.326-0.9,0.489-1.493,0.489
		c-0.278,0-0.611-0.026-0.999-0.079c-0.388-0.053-0.731-0.155-1.031-0.307v-1.247c0.237,0.125,0.505,0.234,0.807,0.326
		c0.301,0.091,0.648,0.136,1.046,0.136c0.284,0,0.514-0.038,0.688-0.115c0.174-0.077,0.262-0.216,0.262-0.416
		c0-0.135-0.073-0.244-0.222-0.328c-0.146-0.083-0.403-0.141-0.769-0.171c-0.651-0.052-1.109-0.203-1.372-0.453
		c-0.264-0.25-0.395-0.585-0.395-1.006c0-0.476,0.201-0.867,0.601-1.175c0.4-0.308,0.892-0.462,1.475-0.462
		c0.255,0,0.527,0.022,0.817,0.066c0.29,0.044,0.537,0.098,0.741,0.164v1.263c-0.252-0.111-0.504-0.192-0.754-0.244
		c-0.252-0.053-0.522-0.079-0.813-0.079c-0.232,0-0.416,0.037-0.547,0.111c-0.131,0.074-0.195,0.161-0.195,0.26
		c0,0.186,0.093,0.309,0.279,0.368c0.188,0.06,0.384,0.096,0.59,0.108c0.627,0.039,1.099,0.189,1.414,0.448
		C78.917,42.995,79.074,43.344,79.074,43.783z"/>
	<path fill="#ED1C24" d="M85.642,43.783c0,0.537-0.201,0.968-0.604,1.295c-0.402,0.326-0.899,0.489-1.494,0.489
		c-0.276,0-0.609-0.026-0.997-0.079c-0.389-0.053-0.733-0.155-1.032-0.307v-1.247c0.236,0.125,0.506,0.234,0.807,0.326
		c0.3,0.091,0.65,0.136,1.047,0.136c0.284,0,0.513-0.038,0.687-0.115c0.175-0.077,0.263-0.216,0.263-0.416
		c0-0.135-0.074-0.244-0.22-0.328c-0.149-0.083-0.404-0.141-0.77-0.171c-0.654-0.052-1.111-0.203-1.374-0.453
		c-0.263-0.25-0.393-0.585-0.393-1.006c0-0.476,0.199-0.867,0.6-1.175c0.399-0.308,0.892-0.462,1.475-0.462
		c0.255,0,0.527,0.022,0.818,0.066c0.289,0.044,0.537,0.098,0.741,0.164v1.263c-0.254-0.111-0.505-0.192-0.756-0.244
		c-0.25-0.053-0.521-0.079-0.812-0.079c-0.233,0-0.416,0.037-0.547,0.111c-0.13,0.074-0.196,0.161-0.196,0.26
		c0,0.186,0.094,0.309,0.281,0.368c0.186,0.06,0.384,0.096,0.589,0.108c0.627,0.039,1.099,0.189,1.414,0.448
		C85.484,42.995,85.642,43.344,85.642,43.783z"/>
	<path fill="#ED1C24" d="M94.639,45.475h-1.479v-3.086c0-0.18-0.063-0.339-0.193-0.478c-0.13-0.139-0.333-0.208-0.61-0.208
		c-0.228,0-0.431,0.042-0.608,0.125c-0.179,0.083-0.329,0.19-0.45,0.322v3.326h-1.478v-3.086c0-0.18-0.065-0.339-0.193-0.478
		c-0.129-0.139-0.331-0.208-0.606-0.208c-0.262,0-0.479,0.051-0.658,0.151c-0.177,0.101-0.308,0.199-0.39,0.295v3.326h-1.479v-4.912
		l1.479-0.107v0.477l0.571-0.333c0.189-0.11,0.375-0.184,0.557-0.223c0.184-0.04,0.368-0.06,0.559-0.06
		c0.339,0,0.629,0.066,0.87,0.197c0.239,0.132,0.425,0.312,0.552,0.542l0.796-0.458c0.16-0.093,0.336-0.163,0.524-0.21
		c0.19-0.046,0.389-0.07,0.594-0.07c0.511,0,0.912,0.15,1.205,0.451c0.293,0.3,0.438,0.696,0.438,1.188V45.475z"/>
	<path fill="#ED1C24" d="M101.062,44.729l-1.15,0.899c-0.177-0.055-0.331-0.142-0.462-0.261c-0.132-0.12-0.218-0.255-0.26-0.407
		l-0.906,0.489c-0.034,0.019-0.096,0.037-0.18,0.057c-0.086,0.02-0.157,0.03-0.215,0.03c-0.696,0-1.273-0.228-1.729-0.681
		c-0.454-0.454-0.681-1.085-0.681-1.893c0-0.768,0.235-1.401,0.708-1.899c0.471-0.498,1.073-0.747,1.806-0.747
		c0.291,0,0.564,0.056,0.818,0.167c0.254,0.111,0.421,0.209,0.501,0.295l0.84-0.292l0.285,0.077v3.142
		c0,0.274,0.05,0.492,0.151,0.654C100.689,44.52,100.847,44.644,101.062,44.729z M99.036,44.036v-2.134
		c-0.096-0.114-0.221-0.211-0.375-0.293c-0.156-0.081-0.345-0.122-0.568-0.122c-0.321,0-0.59,0.112-0.801,0.336
		c-0.213,0.224-0.318,0.597-0.318,1.116c0,0.413,0.099,0.743,0.296,0.992c0.198,0.249,0.476,0.373,0.833,0.373
		c0.205,0,0.396-0.032,0.575-0.096C98.856,44.145,98.975,44.087,99.036,44.036z"/>
	<path fill="#ED1C24" d="M105.363,42.025c-0.093-0.069-0.223-0.13-0.39-0.183c-0.169-0.052-0.365-0.079-0.593-0.079
		c-0.266,0-0.488,0.039-0.672,0.116c-0.182,0.077-0.334,0.171-0.455,0.284v3.311h-1.478v-4.912l1.478-0.107v0.492l0.465-0.273
		c0.145-0.085,0.311-0.155,0.497-0.211s0.357-0.084,0.516-0.084c0.165,0,0.299,0.01,0.399,0.03c0.101,0.019,0.178,0.041,0.232,0.065
		V42.025z"/>
	<path fill="#ED1C24" d="M108.556,44.612l-1.074,0.955c-0.442-0.173-0.774-0.426-0.996-0.759c-0.221-0.333-0.332-0.73-0.332-1.193
		v-2.143h-0.492v-0.909h0.492v-1.631l1.479-0.108v1.74h0.77v0.909h-0.77v1.748c0,0.349,0.083,0.639,0.25,0.87
		C108.049,44.319,108.274,44.494,108.556,44.612z"/>
	<path fill="#ED1C24" d="M116.262,44.729l-1.151,0.899c-0.176-0.055-0.329-0.142-0.461-0.261c-0.132-0.12-0.219-0.255-0.261-0.407
		l-0.905,0.489c-0.036,0.019-0.097,0.037-0.181,0.057c-0.086,0.02-0.156,0.03-0.215,0.03c-0.697,0-1.273-0.228-1.727-0.681
		c-0.456-0.454-0.684-1.085-0.684-1.893c0-0.768,0.236-1.401,0.709-1.899c0.472-0.498,1.074-0.747,1.806-0.747
		c0.292,0,0.565,0.056,0.818,0.167c0.254,0.111,0.422,0.209,0.501,0.295l0.84-0.292l0.284,0.077v3.142
		c0,0.274,0.052,0.492,0.151,0.654C115.89,44.52,116.048,44.644,116.262,44.729z M114.236,44.036v-2.134
		c-0.095-0.114-0.222-0.211-0.376-0.293c-0.154-0.081-0.344-0.122-0.567-0.122c-0.322,0-0.59,0.112-0.802,0.336
		c-0.213,0.224-0.318,0.597-0.318,1.116c0,0.413,0.099,0.743,0.297,0.992c0.197,0.249,0.477,0.373,0.833,0.373
		c0.204,0,0.396-0.032,0.575-0.096C114.055,44.145,114.175,44.087,114.236,44.036z"/>
	<path fill="#ED1C24" d="M120.886,43.783c0,0.537-0.201,0.968-0.604,1.295c-0.402,0.326-0.899,0.489-1.493,0.489
		c-0.277,0-0.61-0.026-0.998-0.079c-0.389-0.053-0.731-0.155-1.031-0.307v-1.247c0.236,0.125,0.505,0.234,0.806,0.326
		s0.648,0.136,1.047,0.136c0.283,0,0.513-0.038,0.688-0.115s0.262-0.216,0.262-0.416c0-0.135-0.073-0.244-0.222-0.328
		c-0.146-0.083-0.402-0.141-0.768-0.171c-0.652-0.052-1.11-0.203-1.373-0.453c-0.264-0.25-0.395-0.585-0.395-1.006
		c0-0.476,0.201-0.867,0.602-1.175c0.399-0.308,0.892-0.462,1.474-0.462c0.255,0,0.527,0.022,0.818,0.066
		c0.289,0.044,0.537,0.098,0.741,0.164v1.263c-0.252-0.111-0.505-0.192-0.755-0.244c-0.251-0.053-0.521-0.079-0.813-0.079
		c-0.232,0-0.416,0.037-0.547,0.111c-0.131,0.074-0.195,0.161-0.195,0.26c0,0.186,0.093,0.309,0.28,0.368
		c0.187,0.06,0.384,0.096,0.59,0.108c0.627,0.039,1.098,0.189,1.413,0.448C120.728,42.995,120.886,43.344,120.886,43.783z"/>
</g>
</svg>
