<?xml version="1.0" encoding="utf-8"?>
<!-- Generator: Adobe Illustrator 16.0.0, SVG Export Plug-In . SVG Version: 6.00 Build 0)  -->
<!DOCTYPE svg PUBLIC "-//W3C//DTD SVG 1.1//EN" "http://www.w3.org/Graphics/SVG/1.1/DTD/svg11.dtd">
<svg version="1.1" id="Layer_1" xmlns="http://www.w3.org/2000/svg" xmlns:xlink="http://www.w3.org/1999/xlink" x="0px" y="0px"
	 width="512px" height="512px" viewBox="0 0 512 512" enable-background="new 0 0 512 512" xml:space="preserve">
<path fill="#1B9DFB" d="M506,256c0,138.07-111.93,250-250,250C117.922,506,6,394.07,6,256C6,117.922,117.922,6,256,6
	C394.07,6,506,117.922,506,256z"/>
<g id="_x23_000000ff">
	<path fill="#FFFFFF" d="M239.032,94.867c8.394-6.302,20.313-7.283,29.688-2.622c6.866,3.333,12.291,9.653,14.202,17.075
		c1.11,3.924,0.868,8.047,0.885,12.075c0,35.607,0,71.207,0,106.807c37.327,0.008,74.653-0.009,111.98,0.008
		c8.75-0.164,17.291,4.515,22.065,11.806c6.32,9.22,6.415,22.188,0.27,31.511c-4.73,7.51-13.386,12.37-22.292,12.223
		c-37.344,0.017-74.68,0-112.023,0.009c0,34.436,0,68.872,0,103.308c-0.061,6.711,0.668,13.829-2.509,20.009
		c-5.339,11.571-19.288,17.805-31.554,14.87c-11.728-2.387-21.433-13.169-21.459-25.33c-0.077-37.613-0.009-75.235-0.034-112.856
		c-37.032,0-74.072-0.009-111.104,0.008c-4.626,0.078-9.306-0.85-13.368-3.099c-10.686-5.616-16.363-18.681-13.854-30.382
		c2.152-11.988,13.082-22.014,25.442-22.049c37.621-0.078,75.253-0.009,112.883-0.034c0.009-37.336-0.009-74.671,0.009-112.007
		C228.104,107.88,232.331,99.746,239.032,94.867z"/>
</g>
</svg>
